{"accessors":[{"bufferView":0,"componentType":5126,"count":24,"max":[1.0,1.0,1.0],"min":[-1.0,-1.0,-1.0],"normalized":false,"type":"VEC3"},{"bufferView":1,"componentType":5126,"count":24,"max":[1.0,1.0,7.367134094238281e-05,1.0],"min":[-1.0,-3.0456227250397205e-05,-3.057986032217741e-05,1.0],"normalized":false,"type":"VEC4"},{"bufferView":2,"componentType":5126,"count":24,"max":[1.0,1.0,1.0],"min":[-1.0,-1.0,-1.0],"normalized":false,"type":"VEC3"},{"bufferView":3,"componentType":5126,"count":24,"max":[0.8749980926513672,1.0],"min":[0.12498664855957031,0.0],"normalized":false,"type":"VEC2"},{"bufferView":4,"componentType":5121,"count":36,"max":[23],"min":[0],"normalized":false,"type":"SCALAR"},{"bufferView":5,"componentType":5126,"count":24,"max":[10.0,0.25,10.0],"min":[-10.0,-0.25,-10.0],"normalized":false,"type":"VEC3"},{"bufferView":6,"componentType":5126,"count":24,"max":[1.0,0.0,1.0,1.0],"min":[-1.0,-1.5259254723787308e-05,-1.0,1.0],"normalized":false,"type":"VEC4"},{"bufferView":7,"componentType":5126,"count":24,"max":[1.0,1.0,1.0],"min":[-1.0,-1.0,-1.0],"normalized":false,"type":"VEC3"},{"bufferView":8,"componentType":5126,"count":24,"max":[1.0,1.0],"min":[0.0,0.0],"normalized":false,"type":"VEC2"},{"bufferView":9,"componentType":5121,"count":36,"max":[23],"min":[0],"normalized":false,"type":"SCALAR"},{"bufferView":10,"componentType":5126,"count":24,"max":[0.5,0.5,0.5],"min":[-0.5,-0.5,-0.5],"normalized":false,"type":"VEC3"},{"bufferView":11,"componentType":5126,"count":4,"max":[0.8333333134651184],"min":[0.0],"normalized":false,"type":"SCALAR"},{"bufferView":12,"componentType":5126,"count":4,"max":[1.1230804920196533,2.272089719772339,1.23333740234375],"min":[1.0958584547042847,2.257716655731201,1.2148784399032593],"normalized":false,"type":"VEC3"},{"bufferView":13,"componentType":5126,"count":25,"max":[0.8333333134651184],"min":[0.0],"normalized":false,"type":"SCALAR"},{"bufferView":14,"componentType":5126,"count":25,"max":[0.08552805334329605,0.9999980926513672,-0.0007032899302430451,0.06200753524899483],"min":[0.0008375382167287171,-0.9999992847442627,-0.09073463082313538,0.000409856962505728],"normalized":false,"type":"VEC4"}],"animations":[{"channels":[{"sampler":0,"target":{"node":14,"path":"translation"}},{"sampler":1,"target":{"node":14,"path":"rotation"}}],"name":"Cube_011Action","samplers":[{"input":11,"interpolation":"LINEAR","output":12},{"input":13,"interpolation":"LINEAR","output":14}]},{"channels":[{"sampler":0,"target":{"node":33,"path":"translation"}},{"sampler":1,"target":{"node":33,"path":"rotation"}}],"name":"Cube_011Action2","samplers":[{"input":11,"interpolation":"LINEAR","output":12},{"input":13,"interpolation":"LINEAR","output":14}]},{"channels":[{"sampler":0,"target":{"node":51,"path":"translation"}},{"sampler":1,"target":{"node":51,"path":"rotation"}}],"name":"Cube_011Action3","samplers":[{"input":11,"interpolation":"LINEAR","output":12},{"input":13,"interpolation":"LINEAR","output":14}]}],"asset":{"generator":"Godot Engine v4.6.stable.official@89cea143987d564363e15d207438530651d943ac","version":"2.0"},"bufferViews":[{"buffer":0,"byteLength":288,"byteStride":12,"target":34962},{"buffer":0,"byteLength":384,"byteOffset":288,"byteStride":16,"target":34962},{"buffer":0,"byteLength":288,"byteOffset":672,"byteStride":12,"target":34962},{"buffer":0,"byteLength":192,"byteOffset":960,"byteStride":8,"target":34962},{"buffer":0,"byteLength":36,"byteOffset":1152,"target":34963},{"buffer":0,"byteLength":288,"byteOffset":1188,"byteStride":12,"target":34962},{"buffer":0,"byteLength":384,"byteOffset":1476,"byteStride":16,"target":34962},{"buffer":0,"byteLength":288,"byteOffset":1860,"byteStride":12,"target":34962},{"buffer":0,"byteLength":192,"byteOffset":2148,"byteStride":8,"target":34962},{"buffer":0,"byteLength":36,"byteOffset":2340,"target":34963},{"buffer":0,"byteLength":288,"byteOffset":2376,"byteStride":12,"target":34962},{"buffer":0,"byteLength":16,"byteOffset":2664},{"buffer":0,"byteLength":48,"byteOffset":2680},{"buffer":0,"byteLength":100,"byteOffset":2728},{"buffer":0,"byteLength":400,"byteOffset":2828}],"buffers":[{"byteLength":3228,"uri":"Practica80.bin"}],"cameras":[{"perspective":{"yfov":1.3089969158172607,"zfar":4000.0,"znear":0.05000000074505806},"type":"perspective"}],"extensions":{"OMI_physics_shape":{"shapes":[{"box":{"size":[0.89019775390625,1.569091796875,0.467041015625]},"type":"box"},{"box":{"size":[20.0,0.5,20.0]},"type":"box"},{"box":{"size":[1.1612695455551147,2.327085494995117,0.47990846633911133]},"type":"box"},{"box":{"size":[2.056396484375,2.7350921630859375,1.8305091857910156]},"type":"box"},{"box":{"size":[1.0,1.0,1.0]},"type":"box"}]}},"extensionsUsed":["GODOT_single_root","OMI_physics_body","OMI_physics_shape"],"materials":[{"doubleSided":true,"name":"Material","pbrMetallicRoughness":{"baseColorFactor":[0.11406043916940689,0.0034553753212094307,0.8000157475471497,1.0],"metallicFactor":0.0,"roughnessFactor":0.5}},{"doubleSided":true,"name":"Material_002","pbrMetallicRoughness":{"baseColorFactor":[1.0,1.0,1.0,1.0],"metallicFactor":0.0,"roughnessFactor":1.0}},{"pbrMetallicRoughness":{"baseColorFactor":[1.0,1.0,1.0,1.0],"metallicFactor":0.0,"roughnessFactor":1.0}},{"pbrMetallicRoughness":{"baseColorFactor":[1.0,1.0,1.0,1.0],"metallicFactor":0.0,"roughnessFactor":1.0}},{"doubleSided":true,"name":"Material_003","pbrMetallicRoughness":{"baseColorFactor":[0.0,0.0,0.0,1.0],"metallicFactor":0.0,"roughnessFactor":0.5}},{"doubleSided":true,"name":"Material_004","pbrMetallicRoughness":{"baseColorFactor":[0.8000230193138123,0.07091755419969559,0.44693899154663086,1.0],"metallicFactor":0.0,"roughnessFactor":0.5}},{"doubleSided":true,"name":"Material_005","pbrMetallicRoughness":{"baseColorFactor":[0.8000230193138123,0.0006817225948907435,0.3295948803424835,1.0],"metallicFactor":0.0,"roughnessFactor":0.5}},{"pbrMetallicRoughness":{"baseColorFactor":[1.0,1.0,1.0,1.0],"metallicFactor":0.0,"roughnessFactor":1.0}},{"pbrMetallicRoughness":{"baseColorFactor":[0.00477695232257247,0.8148465156555176,0.002731743035838008,1.0],"metallicFactor":0.0,"roughnessFactor":1.0}},{"pbrMetallicRoughness":{"baseColorFactor":[0.08437621593475342,0.10702309757471085,0.0009105809731408954,1.0],"metallicFactor":0.0,"roughnessFactor":1.0}}],"meshes":[{"name":"cubo_Cube_002","primitives":[{"attributes":{"NORMAL":2,"POSITION":0,"TANGENT":1,"TEXCOORD_0":3},"indices":4,"material":0,"mode":4}]},{"name":"cubo_Cube_003","primitives":[{"attributes":{"NORMAL":2,"POSITION":0,"TANGENT":1,"TEXCOORD_0":3},"indices":4,"material":1,"mode":4}]},{"name":"cubo_Cube_004","primitives":[{"attributes":{"NORMAL":2,"POSITION":0,"TANGENT":1,"TEXCOORD_0":3},"indices":4,"material":2,"mode":4}]},{"name":"cubo_Cube_005","primitives":[{"attributes":{"NORMAL":2,"POSITION":0,"TANGENT":1,"TEXCOORD_0":3},"indices":4,"material":3,"mode":4}]},{"name":"cubo_Cube_006","primitives":[{"attributes":{"NORMAL":2,"POSITION":0,"TANGENT":1,"TEXCOORD_0":3},"indices":4,"material":4,"mode":4}]},{"name":"cubo_Cube_007","primitives":[{"attributes":{"NORMAL":2,"POSITION":0,"TANGENT":1,"TEXCOORD_0":3},"indices":4,"material":4,"mode":4}]},{"name":"cubo_Cube_008","primitives":[{"attributes":{"NORMAL":2,"POSITION":0,"TANGENT":1,"TEXCOORD_0":3},"indices":4,"material":5,"mode":4}]},{"name":"cubo_Cube_009","primitives":[{"attributes":{"NORMAL":2,"POSITION":0,"TANGENT":1,"TEXCOORD_0":3},"indices":4,"material":5,"mode":4}]},{"name":"cubo_Cube_010","primitives":[{"attributes":{"NORMAL":2,"POSITION":0,"TANGENT":1,"TEXCOORD_0":3},"indices":4,"material":5,"mode":4}]},{"name":"cubo_Cube_011","primitives":[{"attributes":{"NORMAL":2,"POSITION":0,"TANGENT":1,"TEXCOORD_0":3},"indices":4,"material":5,"mode":4}]},{"name":"cubo_Cube_012","primitives":[{"attributes":{"NORMAL":2,"POSITION":0,"TANGENT":1,"TEXCOORD_0":3},"indices":4,"material":6,"mode":4}]},{"name":"cubo_Cube_013","primitives":[{"attributes":{"NORMAL":2,"POSITION":0,"TANGENT":1,"TEXCOORD_0":3},"indices":4,"material":7,"mode":4}]},{"primitives":[{"attributes":{"NORMAL":7,"POSITION":5,"TANGENT":6,"TEXCOORD_0":8},"indices":9,"material":8,"mode":4}]},{"name":"cubo_Cube_0022","primitives":[{"attributes":{"NORMAL":2,"POSITION":0,"TANGENT":1,"TEXCOORD_0":3},"indices":4,"material":0,"mode":4}]},{"name":"cubo_Cube_0032","primitives":[{"attributes":{"NORMAL":2,"POSITION":0,"TANGENT":1,"TEXCOORD_0":3},"indices":4,"material":1,"mode":4}]},{"name":"cubo_Cube_0042","primitives":[{"attributes":{"NORMAL":2,"POSITION":0,"TANGENT":1,"TEXCOORD_0":3},"indices":4,"material":2,"mode":4}]},{"name":"cubo_Cube_0052","primitives":[{"attributes":{"NORMAL":2,"POSITION":0,"TANGENT":1,"TEXCOORD_0":3},"indices":4,"material":3,"mode":4}]},{"name":"cubo_Cube_0062","primitives":[{"attributes":{"NORMAL":2,"POSITION":0,"TANGENT":1,"TEXCOORD_0":3},"indices":4,"material":4,"mode":4}]},{"name":"cubo_Cube_0072","primitives":[{"attributes":{"NORMAL":2,"POSITION":0,"TANGENT":1,"TEXCOORD_0":3},"indices":4,"material":4,"mode":4}]},{"name":"cubo_Cube_0082","primitives":[{"attributes":{"NORMAL":2,"POSITION":0,"TANGENT":1,"TEXCOORD_0":3},"indices":4,"material":5,"mode":4}]},{"name":"cubo_Cube_0092","primitives":[{"attributes":{"NORMAL":2,"POSITION":0,"TANGENT":1,"TEXCOORD_0":3},"indices":4,"material":5,"mode":4}]},{"name":"cubo_Cube_0102","primitives":[{"attributes":{"NORMAL":2,"POSITION":0,"TANGENT":1,"TEXCOORD_0":3},"indices":4,"material":5,"mode":4}]},{"name":"cubo_Cube_0112","primitives":[{"attributes":{"NORMAL":2,"POSITION":0,"TANGENT":1,"TEXCOORD_0":3},"indices":4,"material":5,"mode":4}]},{"name":"cubo_Cube_0122","primitives":[{"attributes":{"NORMAL":2,"POSITION":0,"TANGENT":1,"TEXCOORD_0":3},"indices":4,"material":6,"mode":4}]},{"name":"cubo_Cube_0132","primitives":[{"attributes":{"NORMAL":2,"POSITION":0,"TANGENT":1,"TEXCOORD_0":3},"indices":4,"material":7,"mode":4}]},{"name":"cubo_Cube_0023","primitives":[{"attributes":{"NORMAL":2,"POSITION":0,"TANGENT":1,"TEXCOORD_0":3},"indices":4,"material":0,"mode":4}]},{"name":"cubo_Cube_0033","primitives":[{"attributes":{"NORMAL":2,"POSITION":0,"TANGENT":1,"TEXCOORD_0":3},"indices":4,"material":1,"mode":4}]},{"name":"cubo_Cube_0043","primitives":[{"attributes":{"NORMAL":2,"POSITION":0,"TANGENT":1,"TEXCOORD_0":3},"indices":4,"material":2,"mode":4}]},{"name":"cubo_Cube_0053","primitives":[{"attributes":{"NORMAL":2,"POSITION":0,"TANGENT":1,"TEXCOORD_0":3},"indices":4,"material":3,"mode":4}]},{"name":"cubo_Cube_0063","primitives":[{"attributes":{"NORMAL":2,"POSITION":0,"TANGENT":1,"TEXCOORD_0":3},"indices":4,"material":4,"mode":4}]},{"name":"cubo_Cube_0073","primitives":[{"attributes":{"NORMAL":2,"POSITION":0,"TANGENT":1,"TEXCOORD_0":3},"indices":4,"material":4,"mode":4}]},{"name":"cubo_Cube_0083","primitives":[{"attributes":{"NORMAL":2,"POSITION":0,"TANGENT":1,"TEXCOORD_0":3},"indices":4,"material":5,"mode":4}]},{"name":"cubo_Cube_0093","primitives":[{"attributes":{"NORMAL":2,"POSITION":0,"TANGENT":1,"TEXCOORD_0":3},"indices":4,"material":5,"mode":4}]},{"name":"cubo_Cube_0103","primitives":[{"attributes":{"NORMAL":2,"POSITION":0,"TANGENT":1,"TEXCOORD_0":3},"indices":4,"material":5,"mode":4}]},{"name":"cubo_Cube_0113","primitives":[{"attributes":{"NORMAL":2,"POSITION":0,"TANGENT":1,"TEXCOORD_0":3},"indices":4,"material":5,"mode":4}]},{"name":"cubo_Cube_0123","primitives":[{"attributes":{"NORMAL":2,"POSITION":0,"TANGENT":1,"TEXCOORD_0":3},"indices":4,"material":6,"mode":4}]},{"name":"cubo_Cube_0133","primitives":[{"attributes":{"NORMAL":2,"POSITION":0,"TANGENT":1,"TEXCOORD_0":3},"indices":4,"material":7,"mode":4}]},{"primitives":[{"attributes":{"NORMAL":7,"POSITION":10,"TANGENT":6,"TEXCOORD_0":8},"indices":9,"material":9,"mode":4}]},{"primitives":[{"attributes":{"NORMAL":7,"POSITION":10,"TANGENT":6,"TEXCOORD_0":8},"indices":9,"material":9,"mode":4}]},{"primitives":[{"attributes":{"NORMAL":7,"POSITION":10,"TANGENT":6,"TEXCOORD_0":8},"indices":9,"material":9,"mode":4}]},{"primitives":[{"attributes":{"NORMAL":7,"POSITION":10,"TANGENT":6,"TEXCOORD_0":8},"indices":9,"material":9,"mode":4}]},{"primitives":[{"attributes":{"NORMAL":7,"POSITION":10,"TANGENT":6,"TEXCOORD_0":8},"indices":9,"material":9,"mode":4}]}],"nodes":[{"children":[1,16,19,20,38,56,61,64,67,70,73,76],"name":"Level"},{"children":[2,15],"extensions":{"OMI_physics_body":{"motion":{"type":"kinematic"}}},"name":"Player","translation":[0.0,0.08480501174926758,0.0]},{"children":[3,4,5,6,7,8,9,10,11,12,13,14],"name":"cubo","translation":[0.0,0.6447041034698486,0.0]},{"mesh":0,"name":"Cuerpo","scale":[-0.49031275510787964,-0.5490337014198303,-0.23087379336357117],"translation":[0.7987869381904602,0.7536213397979736,1.1411001682281494]},{"mesh":1,"name":"Cabeza","scale":[-0.3162365257740021,-0.3628784120082855,-0.3162365257740021],"translation":[1.1599704027175903,1.6370453834533691,1.1687365770339966]},{"mesh":2,"name":"Ojo Derecho","scale":[0.09043079614639282,0.09043079614639282,0.09043079614639282],"translation":[1.4621586799621582,1.795269250869751,1.3724548816680908]},{"mesh":3,"name":"Ojo Izquierdo","scale":[0.09043079614639282,0.09043079614639282,0.09043079614639282],"translation":[1.4507904052734375,1.8053405284881592,1.0552226305007935]},{"mesh":4,"name":"Pupila derecha","scale":[0.043685827404260635,0.043685827404260635,0.043685827404260635],"translation":[1.522210717201233,1.790953516960144,1.3475396633148193]},{"mesh":5,"name":"Pulipa izquierda","scale":[0.043685827404260635,0.043685827404260635,0.043685827404260635],"translation":[1.5146135091781616,1.8014219999313354,1.03272545337677]},{"mesh":6,"name":"Brazo Derecho","rotation":[0.0,1.0,0.0,0.0],"scale":[0.07296644151210785,0.3620615005493164,0.07296644151210785],"translation":[1.121009111404419,0.9094315767288208,1.5496464967727661]},{"mesh":7,"name":"Brazo Izquierdo","rotation":[0.0,1.0,0.0,0.0],"scale":[0.07296644151210785,0.3620615005493164,0.07296644151210785],"translation":[1.319347620010376,0.9224982857704163,0.7959684729576111]},{"mesh":8,"name":"Pierna derecha","rotation":[0.0,1.0,0.0,0.0],"scale":[0.07296644151210785,0.3620615005493164,0.07296644151210785],"translation":[1.0874683856964111,0.0024289488792419434,1.2415188550949097]},{"mesh":9,"name":"Pierna Izquierda","rotation":[0.0,1.0,0.0,0.0],"scale":[0.07296644151210785,0.3620615005493164,0.07296644151210785],"translation":[1.0874683856964111,0.0024289488792419434,1.0312360525131226]},{"mesh":10,"name":"Mochila","scale":[0.26221174001693726,0.26221174001693726,0.26221174001693726],"translation":[0.04724976420402527,0.9494149684906006,1.162842869758606]},{"mesh":11,"name":"Antena","rotation":[0.08552805334329605,0.9902561902999878,-0.09073463082313538,0.062007542699575424],"scale":[0.022522874176502228,0.3991290330886841,0.022522874176502228],"translation":[1.0958584547042847,2.272089719772339,1.23333740234375]},{"extensions":{"OMI_physics_body":{"collider":{"shape":0}}},"name":"CollisionShape3D","translation":[0.8189771175384521,1.5543155670166016,1.1457905769348145]},{"children":[17,18],"extensions":{"OMI_physics_body":{"motion":{"type":"static"}}},"name":"Floor"},{"mesh":12,"name":"MeshInstance3D","translation":[0.0023870468139648438,-0.05942511558532715,0.01569223403930664]},{"extensions":{"OMI_physics_body":{"collider":{"shape":1}}},"name":"CollisionShape3D2"},{"camera":0,"name":"Camera3D","rotation":[-0.3826834559440613,0.0,0.0,0.9238795638084412],"translation":[0.0,10.0,10.0]},{"children":[21,34,35,36],"extensions":{"OMI_physics_body":{"motion":{"type":"kinematic"}}},"name":"NPC","translation":[3.463494300842285,0.0,0.0]},{"children":[22,23,24,25,26,27,28,29,30,31,32,33],"name":"cubo2","translation":[-6.927028656005859,0.6578866243362427,-0.010053157806396484]},{"mesh":13,"name":"Cuerpo2","scale":[-0.49031275510787964,-0.5490337014198303,-0.23087379336357117],"translation":[0.7987869381904602,0.7536213397979736,1.1411001682281494]},{"mesh":14,"name":"Cabeza2","scale":[-0.3162365257740021,-0.3628784120082855,-0.3162365257740021],"translation":[1.1599704027175903,1.6370453834533691,1.1687365770339966]},{"mesh":15,"name":"Ojo Derecho2","scale":[0.09043079614639282,0.09043079614639282,0.09043079614639282],"translation":[1.4621586799621582,1.795269250869751,1.3724548816680908]},{"mesh":16,"name":"Ojo Izquierdo2","scale":[0.09043079614639282,0.09043079614639282,0.09043079614639282],"translation":[1.4507904052734375,1.8053405284881592,1.0552226305007935]},{"mesh":17,"name":"Pupila derecha2","scale":[0.043685827404260635,0.043685827404260635,0.043685827404260635],"translation":[1.522210717201233,1.790953516960144,1.3475396633148193]},{"mesh":18,"name":"Pulipa izquierda2","scale":[0.043685827404260635,0.043685827404260635,0.043685827404260635],"translation":[1.5146135091781616,1.8014219999313354,1.03272545337677]},{"mesh":19,"name":"Brazo Derecho2","rotation":[0.0,1.0,0.0,0.0],"scale":[0.07296644151210785,0.3620615005493164,0.07296644151210785],"translation":[1.121009111404419,0.9094315767288208,1.5496464967727661]},{"mesh":20,"name":"Brazo Izquierdo2","rotation":[0.0,1.0,0.0,0.0],"scale":[0.07296644151210785,0.3620615005493164,0.07296644151210785],"translation":[1.319347620010376,0.9224982857704163,0.7959684729576111]},{"mesh":21,"name":"Pierna derecha2","rotation":[0.0,1.0,0.0,0.0],"scale":[0.07296644151210785,0.3620615005493164,0.07296644151210785],"translation":[1.0874683856964111,0.0024289488792419434,1.2415188550949097]},{"mesh":22,"name":"Pierna Izquierda2","rotation":[0.0,1.0,0.0,0.0],"scale":[0.07296644151210785,0.3620615005493164,0.07296644151210785],"translation":[1.0874683856964111,0.0024289488792419434,1.0312360525131226]},{"mesh":23,"name":"Mochila2","scale":[0.26221174001693726,0.26221174001693726,0.26221174001693726],"translation":[0.04724976420402527,0.9494149684906006,1.162842869758606]},{"mesh":24,"name":"Antena2","rotation":[0.08552805334329605,0.9902561902999878,-0.09073463082313538,0.062007542699575424],"scale":[0.022522874176502228,0.3991290330886841,0.022522874176502228],"translation":[1.0958584547042847,2.272089719772339,1.23333740234375]},{"name":"Timer"},{"extensions":{"OMI_physics_body":{"collider":{"shape":2}}},"name":"CollisionShape3D3","translation":[-6.3785200119018555,1.3857592344284058,1.1174542903900146]},{"children":[37],"extensions":{"OMI_physics_body":{"trigger":{"nodes":[37.0]}}},"name":"Area3D"},{"extensions":{"OMI_physics_body":{"trigger":null}},"name":"CollisionShape3D4","translation":[-6.393263339996338,1.468407154083252,0.9792698621749878]},{"children":[39,52,53,54],"extensions":{"OMI_physics_body":{"motion":{"type":"kinematic"}}},"name":"NPC2","translation":[3.463494300842285,0.0,0.0]},{"children":[40,41,42,43,44,45,46,47,48,49,50,51],"name":"cubo3","translation":[-6.927028656005859,0.6578866243362427,2.0308449268341064]},{"mesh":25,"name":"Cuerpo3","scale":[-0.49031275510787964,-0.5490337014198303,-0.23087379336357117],"translation":[0.7987869381904602,0.7536213397979736,1.1411001682281494]},{"mesh":26,"name":"Cabeza3","scale":[-0.3162365257740021,-0.3628784120082855,-0.3162365257740021],"translation":[1.1599704027175903,1.6370453834533691,1.1687365770339966]},{"mesh":27,"name":"Ojo Derecho3","scale":[0.09043079614639282,0.09043079614639282,0.09043079614639282],"translation":[1.4621586799621582,1.795269250869751,1.3724548816680908]},{"mesh":28,"name":"Ojo Izquierdo3","scale":[0.09043079614639282,0.09043079614639282,0.09043079614639282],"translation":[1.4507904052734375,1.8053405284881592,1.0552226305007935]},{"mesh":29,"name":"Pupila derecha3","scale":[0.043685827404260635,0.043685827404260635,0.043685827404260635],"translation":[1.522210717201233,1.790953516960144,1.3475396633148193]},{"mesh":30,"name":"Pulipa izquierda3","scale":[0.043685827404260635,0.043685827404260635,0.043685827404260635],"translation":[1.5146135091781616,1.8014219999313354,1.03272545337677]},{"mesh":31,"name":"Brazo Derecho3","rotation":[0.0,1.0,0.0,0.0],"scale":[0.07296644151210785,0.3620615005493164,0.07296644151210785],"translation":[1.121009111404419,0.9094315767288208,1.5496464967727661]},{"mesh":32,"name":"Brazo Izquierdo3","rotation":[0.0,1.0,0.0,0.0],"scale":[0.07296644151210785,0.3620615005493164,0.07296644151210785],"translation":[1.319347620010376,0.9224982857704163,0.7959684729576111]},{"mesh":33,"name":"Pierna derecha3","rotation":[0.0,1.0,0.0,0.0],"scale":[0.07296644151210785,0.3620615005493164,0.07296644151210785],"translation":[1.0874683856964111,0.0024289488792419434,1.2415188550949097]},{"mesh":34,"name":"Pierna Izquierda3","rotation":[0.0,1.0,0.0,0.0],"scale":[0.07296644151210785,0.3620615005493164,0.07296644151210785],"translation":[1.0874683856964111,0.0024289488792419434,1.0312360525131226]},{"mesh":35,"name":"Mochila3","scale":[0.26221174001693726,0.26221174001693726,0.26221174001693726],"translation":[0.04724976420402527,0.9494149684906006,1.162842869758606]},{"mesh":36,"name":"Antena3","rotation":[0.08552805334329605,0.9902561902999878,-0.09073463082313538,0.062007542699575424],"scale":[0.022522874176502228,0.3991290330886841,0.022522874176502228],"translation":[1.0958584547042847,2.272089719772339,1.23333740234375]},{"name":"Timer2"},{"extensions":{"OMI_physics_body":{"collider":{"shape":2}}},"name":"CollisionShape3D5","translation":[-6.067074775695801,1.542277216911316,3.1798248291015625]},{"children":[55],"extensions":{"OMI_physics_body":{"trigger":{"nodes":[55.0]}}},"name":"Area3D2"},{"extensions":{"OMI_physics_body":{"trigger":null}},"name":"CollisionShape3D6","translation":[-6.350660800933838,1.5996251106262207,3.1942853927612305]},{"children":[57,58,59,60],"name":"CanvasLayer"},{"name":"Label"},{"name":"Label2"},{"name":"Label3"},{"name":"HighScoreLabel"},{"children":[62,63],"extensions":{"OMI_physics_body":{"trigger":{"nodes":[63.0]}}},"name":"Collectible","translation":[4.2133331298828125,1.2386091947555542,0.0]},{"mesh":37,"name":"MeshInstance3D2","translation":[0.0,-0.5093984603881836,0.0]},{"extensions":{"OMI_physics_body":{"trigger":null}},"name":"CollisionShape3D7"},{"children":[65,66],"extensions":{"OMI_physics_body":{"trigger":{"nodes":[66.0]}}},"name":"Collectible2","translation":[4.2133331298828125,1.2386091947555542,3.048341751098633]},{"mesh":38,"name":"MeshInstance3D3","translation":[0.0,-0.5093984603881836,0.0]},{"extensions":{"OMI_physics_body":{"trigger":null}},"name":"CollisionShape3D8"},{"children":[68,69],"extensions":{"OMI_physics_body":{"trigger":{"nodes":[69.0]}}},"name":"Collectible3","translation":[0.2650880813598633,1.2386091947555542,6.331316947937012]},{"mesh":39,"name":"MeshInstance3D4","translation":[0.0,-0.5093984603881836,0.0]},{"extensions":{"OMI_physics_body":{"trigger":null}},"name":"CollisionShape3D9"},{"children":[71,72],"extensions":{"OMI_physics_body":{"trigger":{"nodes":[72.0]}}},"name":"Collectible4","translation":[0.2650880813598633,1.2386091947555542,-3.879206657409668]},{"mesh":40,"name":"MeshInstance3D5","translation":[0.0,-0.5093984603881836,0.0]},{"extensions":{"OMI_physics_body":{"trigger":null}},"name":"CollisionShape3D10"},{"children":[74,75],"extensions":{"OMI_physics_body":{"trigger":{"nodes":[75.0]}}},"name":"Collectible5","translation":[-5.247727870941162,1.2386091947555542,1.7366323471069336]},{"mesh":41,"name":"MeshInstance3D6","translation":[0.0,-0.5093984603881836,0.0]},{"extensions":{"OMI_physics_body":{"trigger":null}},"name":"CollisionShape3D11"},{"name":"HTTPRequest"}],"scene":0,"scenes":[{"nodes":[0]}]}